<svg width="106" height="16" viewBox="0 0 106 16" fill="none" xmlns="http://www.w3.org/2000/svg">
<path d="M61 8C61 3.58172 57.4183 -1.93045e-06 53 -2.3167e-06C48.5817 -2.70296e-06 45 3.58172 45 8C45 12.4183 48.5817 16 53 16C57.4183 16 61 12.4183 61 8Z" fill="#145FE9"/>
<path d="M86 8.5C86 5.46243 83.5376 3 80.5 3C77.4624 3 75 5.46243 75 8.5C75 11.5376 77.4624 14 80.5 14C83.5376 14 86 11.5376 86 8.5Z" fill="#145FE9"/>
<path d="M20 8.5C20 5.46243 22.4624 3 25.5 3C28.5376 3 31 5.46243 31 8.5C31 11.5376 28.5376 14 25.5 14C22.4624 14 20 11.5376 20 8.5Z" fill="#145FE9"/>
<path d="M106 8C106 6.34315 104.657 5 103 5C101.343 5 100 6.34314 100 8C100 9.65685 101.343 11 103 11C104.657 11 106 9.65685 106 8Z" fill="#145FE9"/>
<path d="M-3.49691e-07 7.99999C-2.04844e-07 6.34314 1.34315 4.99999 3 5C4.65685 5 6 6.34314 6 8C6 9.65685 4.65685 11 3 11C1.34315 11 -4.94538e-07 9.65685 -3.49691e-07 7.99999Z" fill="#145FE9"/>
</svg>
