<svg width="111" height="21" viewBox="0 0 111 21" fill="none" xmlns="http://www.w3.org/2000/svg">
<path d="M90 10.5C90 16.299 94.701 21 100.5 21C106.299 21 111 16.299 111 10.5C111 4.70101 106.299 0 100.5 0C94.701 0 90 4.70101 90 10.5Z" fill="#00CCBD"/>
<path d="M55 11C55 15.4183 58.5817 19 63 19C67.4183 19 71 15.4183 71 11C71 6.58172 67.4183 3 63 3C58.5817 3 55 6.58172 55 11Z" fill="#00CCBD"/>
<path d="M25 10.5C25 13.5376 27.4624 16 30.5 16C33.5376 16 36 13.5376 36 10.5C36 7.46243 33.5376 5 30.5 5C27.4624 5 25 7.46243 25 10.5Z" fill="#00CCBD"/>
<path d="M0 11C0 12.6569 1.34315 14 3 14C4.65685 14 6 12.6569 6 11C6 9.34315 4.65685 8 3 8C1.34315 8 0 9.34315 0 11Z" fill="#00CCBD"/>
</svg>
