<svg width="106" height="16" viewBox="0 0 106 16" fill="none" xmlns="http://www.w3.org/2000/svg">
<path d="M45 8C45 12.4183 48.5817 16 53 16C57.4183 16 61 12.4183 61 8C61 3.58172 57.4183 0 53 0C48.5817 0 45 3.58172 45 8Z" fill="#00CCBD"/>
<path d="M20 7.5C20 10.5376 22.4624 13 25.5 13C28.5376 13 31 10.5376 31 7.5C31 4.46243 28.5376 2 25.5 2C22.4624 2 20 4.46243 20 7.5Z" fill="#00CCBD"/>
<path d="M86 7.5C86 10.5376 83.5376 13 80.5 13C77.4624 13 75 10.5376 75 7.5C75 4.46243 77.4624 2 80.5 2C83.5376 2 86 4.46243 86 7.5Z" fill="#00CCBD"/>
<path d="M0 8C0 9.65685 1.34315 11 3 11C4.65685 11 6 9.65685 6 8C6 6.34315 4.65685 5 3 5C1.34315 5 0 6.34315 0 8Z" fill="#00CCBD"/>
<path d="M106 8C106 9.65685 104.657 11 103 11C101.343 11 100 9.65685 100 8C100 6.34315 101.343 5 103 5C104.657 5 106 6.34315 106 8Z" fill="#00CCBD"/>
</svg>
