<svg width="51" height="50" viewBox="0 0 51 50" fill="none" xmlns="http://www.w3.org/2000/svg">
<path d="M7.41849 9.20969L18.8279 25.6601L35.6292 1.13965L35.6983 49.8668L31.9601 49.8454L31.9738 12.025L18.7905 32.4257L5.11077 10.6303L7.41849 9.20969Z" fill="#00CBBC"/>
<path d="M0.489654 0.0011286H3.84016L18.7826 22.9825L33.6558 0.0011286H37.055V46.5777H51V49.9357L33.7726 49.8555V5.84153L18.7826 29.0407L0.489654 0.0011286Z" fill="#1A1A18"/>
<path fill-rule="evenodd" clip-rule="evenodd" d="M0 0C0.148483 2.558 0.0181352 7.1809 0.48512 9.68473C0.895433 11.8839 1.60271 13.748 1.8328 16.0431C2.03796 18.0865 2.79398 19.8885 3.17142 21.7774C3.51486 23.4959 3.33804 25.3757 3.22809 27.3064C3.06941 30.0697 2.84385 32.929 2.75204 35.4938C2.65229 38.2876 1.14139 40.4947 1.39642 44.04C1.49503 45.4042 2.78718 49.8138 3.39131 49.9774C3.8855 50.1105 4.75373 49.6321 4.73106 49.1492C4.71746 48.8547 4.55197 45.0386 4.67665 44.7192C5.23091 43.2986 6.94471 42.7141 7.10339 42.1533C7.57831 40.471 6.44598 40.41 6.05834 39.6473C4.69025 36.9527 8.95319 28.956 8.75824 24.8668C8.6721 23.0694 8.50208 21.1658 8.01469 19.4236C7.1884 16.4707 8.1031 15.9031 8.0623 13.019C8.04756 11.9764 8.48734 9.48727 8.37286 8.55411C8.07363 6.10895 3.91723 1.11031 1.33068 0.0011286L0 0Z" fill="#1A1A18"/>
</svg>
