<?xml version="1.0" encoding="utf-8"?>
<!-- Generator: Adobe Illustrator 28.0.0, SVG Export Plug-In . SVG Version: 6.00 Build 0)  -->
<svg version="1.1" id="Layer_1" xmlns="http://www.w3.org/2000/svg" xmlns:xlink="http://www.w3.org/1999/xlink" x="0px" y="0px"
	 viewBox="0 0 595.28 595.28" style="enable-background:new 0 0 595.28 595.28;" xml:space="preserve">
<style type="text/css">
	.st0{fill:#00CBBC;}
	.st1{fill:#1A1A18;}
	.st2{fill-rule:evenodd;clip-rule:evenodd;fill:#1A1A18;}
</style>
<polygon class="st0" points="137.24,133.6 237.9,279.39 386.13,62.08 386.74,493.92 353.76,493.73 353.88,158.55 237.57,339.35 
	116.88,146.19 "/>
<polygon class="st1" points="92.22,535.57 93.24,535.57 99.78,525.36 99.97,525.36 99.97,543.28 105.87,543.28 105.87,514.06 
	100.91,514.06 92.86,526.46 92.6,526.46 84.58,514.06 79.48,514.06 79.48,543.28 85.42,543.28 85.42,525.36 85.57,525.36 "/>
<rect x="112.29" y="514.06" class="st1" width="5.97" height="29.22"/>
<polygon class="st1" points="139.4,543.28 146.8,543.28 136.48,527.82 146.39,514.06 139.51,514.06 130.97,526.53 130.59,526.53 
	130.59,514.06 124.69,514.06 124.69,543.28 130.59,543.28 130.59,530.01 131.08,530.01 "/>
<polygon class="st1" points="156.78,531.03 167.22,531.03 167.22,543.28 173.11,543.28 173.11,514.06 167.22,514.06 167.22,525.63 
	156.78,525.63 156.78,514.06 150.81,514.06 150.81,543.28 156.78,543.28 "/>
<path class="st1" d="M187.52,532.62l2.68-6.96h0.23l2.8,6.96H187.52z M197.5,543.28h6.54l-12.85-29.64h-1.51l-12.97,29.64h6.54
	l2.38-5.56h9.53L197.5,543.28z"/>
<polygon class="st1" points="213.6,537.87 213.6,514.1 207.63,514.1 207.63,543.28 225.02,543.28 225.02,537.87 "/>
<polygon class="st1" points="235.52,537.87 235.52,531.37 245.62,531.37 245.62,526.01 235.52,526.01 235.52,519.47 247.43,519.47 
	247.43,514.06 229.55,514.06 229.55,543.28 247.62,543.28 247.62,537.87 "/>
<polygon class="st1" points="257.3,514.06 250.42,514.06 262.97,543.66 264.29,543.66 276.8,514.06 270.3,514.06 264.03,530.39 
	263.8,530.39 "/>
<polygon class="st1" points="326.17,537.87 326.17,514.1 320.2,514.1 320.2,543.28 337.59,543.28 337.59,537.87 "/>
<path class="st1" d="M350.1,532.62l2.68-6.96h0.23l2.8,6.96H350.1z M360.08,543.28h6.54l-12.85-29.64h-1.51l-12.97,29.64h6.54
	l2.38-5.56h9.53L360.08,543.28z"/>
<polygon class="st1" points="391.72,543.7 392.89,543.7 392.89,514.06 386.92,514.06 386.92,530.16 371.53,513.64 370.21,513.64 
	370.21,543.28 376.11,543.28 376.11,527.48 "/>
<path class="st1" d="M408.35,543.66c7.33,0,10.92-2.8,11.15-8.73c0.04-3.97-2.57-6.46-6.69-7.94l-5.75-2.04
	c-1.7-0.6-2.42-1.66-2.42-3.06c0.04-1.85,1.74-2.91,4.01-2.91c2.42,0,3.86,1.63,3.82,4.01h6.39c-0.11-6.43-4.69-9.3-9.94-9.3
	c-6.84,0-10.55,3.52-10.55,8.54c-0.08,3.52,2.46,6.54,5.67,7.64c1.78,0.6,5.48,2,5.97,2.15c1.93,0.64,3.21,1.55,3.21,3.14
	c0,2.65-2.68,2.95-4.76,2.95c-2.8,0-4.42-1.66-4.54-3.97h-6.28C397.73,541.69,403.51,543.66,408.35,543.66"/>
<path class="st1" d="M433.91,543.66c7.33,0,10.92-2.8,11.15-8.73c0.04-3.97-2.57-6.46-6.69-7.94l-5.75-2.04
	c-1.7-0.6-2.42-1.66-2.42-3.06c0.04-1.85,1.74-2.91,4.01-2.91c2.42,0,3.86,1.63,3.82,4.01h6.39c-0.11-6.43-4.69-9.3-9.94-9.3
	c-6.84,0-10.55,3.52-10.55,8.54c-0.08,3.52,2.46,6.54,5.67,7.64c1.78,0.6,5.48,2,5.97,2.15c1.93,0.64,3.21,1.55,3.21,3.14
	c0,2.65-2.68,2.95-4.76,2.95c-2.8,0-4.42-1.66-4.54-3.97h-6.28C423.28,541.69,429.07,543.66,433.91,543.66"/>
<polygon class="st1" points="456.02,537.87 456.02,531.37 466.11,531.37 466.11,526.01 456.02,526.01 456.02,519.47 467.93,519.47 
	467.93,514.06 450.05,514.06 450.05,543.28 468.12,543.28 468.12,537.87 "/>
<polygon class="st1" points="495.26,543.7 496.43,543.7 496.43,514.06 490.46,514.06 490.46,530.16 475.07,513.64 473.75,513.64 
	473.75,543.28 479.65,543.28 479.65,527.48 "/>
<path class="st1" d="M511.89,543.66c7.33,0,10.92-2.8,11.15-8.73c0.04-3.97-2.57-6.46-6.69-7.94l-5.75-2.04
	c-1.7-0.6-2.42-1.66-2.42-3.06c0.04-1.85,1.74-2.91,4.01-2.91c2.42,0,3.86,1.63,3.82,4.01h6.39c-0.11-6.43-4.69-9.3-9.94-9.3
	c-6.84,0-10.55,3.52-10.55,8.54c-0.08,3.52,2.46,6.54,5.67,7.64c1.78,0.6,5.48,2,5.97,2.15c1.93,0.64,3.21,1.55,3.21,3.14
	c0,2.65-2.68,2.95-4.76,2.95c-2.8,0-4.42-1.66-4.54-3.97h-6.28C501.27,541.69,507.05,543.66,511.89,543.66"/>
<path class="st1" d="M298.09,538.09l-4.28-3.79l-0.62,0.49c-0.23,0.21-0.47,0.4-0.7,0.59c-0.21,0.19-0.42,0.38-0.62,0.58l-0.26,0.31
	l-0.13,0.18l-0.07,0.13c-0.08,0.19-0.16,0.38-0.24,0.57l-0.04,0.19c-0.02,0.14-0.03,0.28-0.03,0.42c0,0.31,0.07,0.6,0.2,0.86
	c0.13,0.26,0.34,0.51,0.61,0.73c0.27,0.22,0.59,0.39,0.95,0.51c0.36,0.11,0.77,0.17,1.22,0.17c0.69,0,1.38-0.17,2.07-0.52
	C296.8,539.18,297.44,538.71,298.09,538.09 M294.7,524.29c-0.35,0-0.67,0.05-0.97,0.15c-0.3,0.1-0.59,0.25-0.85,0.45
	c-0.26,0.19-0.45,0.42-0.57,0.69c-0.13,0.27-0.19,0.58-0.19,0.94c0,0.75,0.54,1.62,1.61,2.59l0.83,0.75l1.24-0.92
	c0.53-0.39,0.93-0.78,1.18-1.2c0.25-0.4,0.38-0.81,0.38-1.25c0-0.62-0.25-1.14-0.76-1.55c-0.26-0.21-0.55-0.38-0.86-0.48
	C295.42,524.34,295.08,524.29,294.7,524.29z M304.96,540.15l-1.14,2.89l-0.09,0.24l-2.99-2.62c-1.01,0.98-2.05,1.73-3.12,2.23
	c-1.13,0.54-2.3,0.81-3.5,0.81c-1.07,0-2.03-0.14-2.86-0.43c-0.85-0.29-1.58-0.73-2.19-1.31c-0.61-0.58-1.07-1.22-1.37-1.91
	c-0.31-0.7-0.46-1.45-0.46-2.25c0-0.63,0.08-1.21,0.24-1.75c0.16-0.54,0.4-1.03,0.72-1.47c0.31-0.43,0.71-0.86,1.18-1.28
	c0.47-0.41,1.02-0.83,1.64-1.23l0.23-0.16l-1.12-1.19c-0.21-0.23-0.39-0.44-0.52-0.6c-0.15-0.18-0.3-0.4-0.45-0.66
	c-0.15-0.25-0.3-0.54-0.45-0.86c-0.15-0.33-0.27-0.66-0.35-0.98c-0.08-0.33-0.12-0.65-0.12-0.98c0-0.89,0.16-1.7,0.49-2.41
	c0.32-0.72,0.81-1.35,1.46-1.88c0.64-0.53,1.33-0.93,2.08-1.19c0.74-0.26,1.54-0.4,2.38-0.4c0.95,0,1.82,0.13,2.6,0.4
	c0.79,0.26,1.5,0.66,2.12,1.19c0.62,0.53,1.1,1.16,1.41,1.86c0.31,0.71,0.47,1.49,0.47,2.36c0,1.91-1.13,3.68-3.39,5.31l-0.7,0.51
	l3.44,3.06l4.48-4.75v0.36v0.36v3.71v0.36v0.36l-1.9,2.05l2,1.79L304.96,540.15L304.96,540.15z"/>
<polygon class="st1" points="76.11,51.99 105.67,51.99 237.5,255.66 368.72,51.99 398.71,51.99 398.71,464.77 521.74,464.77 
	521.74,494.53 369.75,493.82 369.75,103.75 237.5,309.35 "/>
<path class="st1" d="M422.22,65.06v-6.4h8.27v6.4c0,2.36-1.87,4-4.09,4C424.08,69.06,422.22,67.33,422.22,65.06 M443.96,58.66
	l0.04,5.16c0,2.36-1.73,3.69-3.69,3.69c-1.91,0-3.91-1.07-3.91-3.65v-5.2H443.96z M434.27,71.73h0.13c1.29,1.65,4.22,3.02,6.45,3.02
	c5.25,0,9.34-3.91,9.34-9.96V51.63h-34.38v14.59c0,5.74,4.62,10.09,10.05,10.09C429.38,76.31,432.31,74.98,434.27,71.73z"/>
<path class="st1" d="M428.35,90.81l8.18,3.16v0.27l-8.18,3.29V90.81z M415.81,102.55v7.69l34.86-15.12v-1.78l-34.86-15.25v7.69
	l6.54,2.8v11.21L415.81,102.55z"/>
<polygon class="st1" points="422.17,121.49 450.14,121.49 450.14,114.47 415.81,114.47 415.81,134.92 422.17,134.92 "/>
<polygon class="st1" points="422.17,147.28 450.14,147.28 450.14,140.26 415.81,140.26 415.81,160.71 422.17,160.71 "/>
<polygon class="st1" points="422.17,173.08 429.82,173.08 429.82,184.95 436.14,184.95 436.14,173.08 443.83,173.08 443.83,187.08 
	450.19,187.08 450.19,166.05 415.81,166.05 415.81,187.31 422.17,187.31 "/>
<polygon class="st1" points="415.81,201.54 415.81,208.47 443.83,208.47 443.83,218.04 450.14,218.04 450.14,191.71 443.83,191.71 
	443.83,201.54 "/>
<path class="st2" d="M71.79,51.98c1.31,22.67,0.16,63.64,4.28,85.83c3.62,19.49,9.86,36.01,11.89,56.35
	c1.81,18.11,8.48,34.08,11.81,50.82c3.03,15.23,1.47,31.89,0.5,49c-1.4,24.49-3.39,49.83-4.2,72.56
	c-0.88,24.76-14.21,44.32-11.96,75.74c0.87,12.09,12.27,51.17,17.6,52.62c4.36,1.18,12.02-3.06,11.82-7.34
	c-0.12-2.61-1.58-36.43-0.48-39.26c4.89-12.59,20.01-17.77,21.41-22.74c4.19-14.91-5.8-15.45-9.22-22.21
	c-12.07-23.88,25.54-94.75,23.82-130.99c-0.76-15.93-2.26-32.8-6.56-48.24c-7.29-26.17,0.78-31.2,0.42-56.76
	c-0.13-9.24,3.75-31.3,2.74-39.57c-2.64-21.67-39.31-65.97-62.13-75.8L71.79,51.98z"/>
<path class="st0" d="M450.35,437.66v-8.13l-20.49,11.16h-14.06v7.05h14.11l20.45,11.25v-7.59l-12.9-6.79v-0.27L450.35,437.66z
	 M424.9,409.18v1.21l12.06,7.72v0.22h-21.16v6.97h34.51v-5.85l-14.65-9.51v-0.31l14.65-9.47v-6.03h-34.51v7.01h21.16v0.18
	L424.9,409.18z M422.17,373.19h7.68v11.92h6.34v-11.92h7.72v14.06h6.39v-21.12h-34.51v21.34h6.38V373.19z M422.22,339.66h21.65v5.63
	c0,5.58-5.85,7.46-10.81,7.46c-3.21,0-10.85-0.58-10.85-7.46V339.66z M450.3,332.6h-34.51v12.77c0,10.63,7.64,14.69,17.28,14.69
	c9.42,0,17.23-4.29,17.23-14.69V332.6z M428.38,308.85l8.22,3.17v0.27l-8.22,3.3V308.85z M415.79,320.64v7.72l35-15.18v-1.79
	l-35-15.31v7.72l6.56,2.81v11.25L415.79,320.64z M428.29,287.28c-3.3-0.04-6.43-2.1-6.43-6.61c0-5.58,6.21-7.32,11.12-7.37
	c5.31-0.09,11.12,1.96,11.12,7.14c0,4.06-2.54,6.56-6.43,6.74v7.41c7.5-0.04,13.08-5.49,13.08-14.29c0-10.05-8.84-14.51-17.86-14.42
	c-9.06-0.36-17.68,4.6-17.68,14.69c0,8.97,5.58,14.11,13.08,14.11V287.28z M428.38,245.18l8.22,3.17v0.27l-8.22,3.3V245.18z
	 M415.79,256.97v7.72l35-15.18v-1.79l-35-15.31v7.72l6.56,2.81v11.25L415.79,256.97z"/>
</svg>
