<svg width="111" height="21" viewBox="0 0 111 21" fill="none" xmlns="http://www.w3.org/2000/svg">
<path d="M21 10.5C21 16.299 16.299 21 10.5 21C4.70101 21 0 16.299 0 10.5C0 4.70101 4.70101 0 10.5 0C16.299 0 21 4.70101 21 10.5Z" fill="#00CCBD"/>
<path d="M56 11C56 15.4183 52.4183 19 48 19C43.5817 19 40 15.4183 40 11C40 6.58172 43.5817 3 48 3C52.4183 3 56 6.58172 56 11Z" fill="#00CCBD"/>
<path d="M86 10.5C86 13.5376 83.5376 16 80.5 16C77.4624 16 75 13.5376 75 10.5C75 7.46243 77.4624 5 80.5 5C83.5376 5 86 7.46243 86 10.5Z" fill="#00CCBD"/>
<path d="M111 11C111 12.6569 109.657 14 108 14C106.343 14 105 12.6569 105 11C105 9.34315 106.343 8 108 8C109.657 8 111 9.34315 111 11Z" fill="#00CCBD"/>
</svg>
