<?xml version="1.0" encoding="utf-8"?>
<!-- Generator: Adobe Illustrator 28.0.0, SVG Export Plug-In . SVG Version: 6.00 Build 0)  -->
<svg version="1.1" id="Layer_1" xmlns="http://www.w3.org/2000/svg" xmlns:xlink="http://www.w3.org/1999/xlink" x="0px" y="0px"
	 viewBox="0 0 595.28 595.28" style="enable-background:new 0 0 595.28 595.28;" xml:space="preserve">
<style type="text/css">
	.st0{fill:#00CBBC;}
	.st1{fill:#1A1A18;}
	.st2{fill-rule:evenodd;clip-rule:evenodd;fill:#1A1A18;}
</style>
<polygon class="st0" points="138.24,157.94 238.69,303.69 386.6,86.43 387.21,518.16 354.3,517.97 354.42,182.88 238.36,363.64 
	117.93,170.52 "/>
<polygon class="st1" points="77.25,76.35 106.74,76.35 238.29,279.96 369.24,76.35 399.16,76.35 399.16,489.02 521.94,489.02 
	521.94,518.77 370.27,518.06 370.27,128.09 238.29,333.64 "/>
<path class="st2" d="M72.94,76.34c1.31,22.67,0.16,63.63,4.27,85.8c3.61,19.49,9.83,36,11.87,56.34c1.8,18.1,8.46,34.07,11.78,50.8
	c3.02,15.22,1.47,31.88,0.5,48.98c-1.39,24.48-3.38,49.81-4.19,72.54c-0.88,24.75-14.18,44.31-11.94,75.72
	c0.86,12.09,12.25,51.16,17.56,52.6c4.35,1.18,12-3.06,11.8-7.34c-0.12-2.61-1.57-36.42-0.48-39.25
	c4.88-12.58,19.97-17.76,21.37-22.73c4.19-14.9-5.79-15.45-9.2-22.2c-12.05-23.87,25.48-94.73,23.77-130.96
	c-0.76-15.93-2.25-32.8-6.55-48.23c-7.27-26.17,0.78-31.19,0.42-56.75c-0.13-9.23,3.74-31.29,2.74-39.56
	c-2.64-21.67-39.22-65.95-62-75.78L72.94,76.34z"/>
</svg>
